<svg width="19" height="19" viewBox="0 0 19 19" fill="none" xmlns="http://www.w3.org/2000/svg">
<g filter="url(#filter0_n_6_332)">
<path d="M2.80164 13.4583H8.74864M14.6956 13.4583H16.678M9.92347 3.95833C10.4484 3.95833 10.9518 4.16685 11.323 4.53802C11.6941 4.90918 11.9026 5.41259 11.9026 5.9375C11.9026 6.46241 11.6941 6.96582 11.323 7.33698C10.9518 7.70815 10.4484 7.91667 9.92347 7.91667C9.39856 7.91667 8.89515 7.70815 8.52399 7.33698C8.15282 6.96582 7.9443 6.46241 7.9443 5.9375C7.9443 5.41259 8.15282 4.90918 8.52399 4.53802C8.89515 4.16685 9.39856 3.95833 9.92347 3.95833ZM9.92347 3.95833C10.0557 3.5625 10.636 2.69167 11.9026 2.375" stroke="#2C2C2C" stroke-linecap="round" stroke-linejoin="round"/>
<path d="M7.93325 6.34521C3.22283 8.12566 1.32363 8.94741 1.61179 9.53641C3.17929 10.2774 6.057 10.0866 9.002 9.97579C9.81267 9.94571 10.613 10.3479 10.7967 11.1451C10.9265 11.708 10.9606 12.1996 11.2163 12.5115C11.3635 12.6904 11.6129 12.7506 11.8362 12.6928C12.4378 12.5345 12.6864 11.8623 12.9841 10.682C13.0419 10.4524 13.1242 10.2046 13.3467 10.1278C14.3442 9.78104 17.4158 10.545 17.4158 9.13821C17.366 7.67362 16.8324 6.76083 15.12 5.40312C14.571 4.96487 13.876 4.75152 13.1757 4.80621C12.4434 4.86479 12.1022 4.96058 11.8845 5.14821" stroke="#2C2C2C" stroke-linecap="round" stroke-linejoin="round"/>
<path d="M1.59363 9.49447L2.36629 12.9026C2.76134 14.687 2.95925 15.5792 3.61 16.1025C4.26154 16.625 5.17513 16.625 7.00309 16.625H13.7932C15.1573 16.625 15.8389 16.625 16.2909 16.2149C16.7438 15.8049 16.8103 15.1264 16.9448 13.7687L17.4119 9.21027" stroke="#2C2C2C" stroke-linecap="round"/>
</g>
<defs>
<filter id="filter0_n_6_332" x="1.0835" y="1.87488" width="16.8324" height="15.2501" filterUnits="userSpaceOnUse" color-interpolation-filters="sRGB">
<feFlood flood-opacity="0" result="BackgroundImageFix"/>
<feBlend mode="normal" in="SourceGraphic" in2="BackgroundImageFix" result="shape"/>
<feTurbulence type="fractalNoise" baseFrequency="1.4285714626312256 1.4285714626312256" stitchTiles="stitch" numOctaves="3" result="noise" seed="7638" />
<feColorMatrix in="noise" type="luminanceToAlpha" result="alphaNoise" />
<feComponentTransfer in="alphaNoise" result="coloredNoise1">
<feFuncA type="discrete" tableValues="0 0 0 0 0 0 0 0 0 0 0 0 1 1 1 1 1 1 1 1 1 1 1 1 1 1 1 1 1 1 1 1 1 1 1 1 1 1 0 0 0 0 0 0 0 0 0 0 0 0 0 0 0 0 0 0 0 0 0 0 0 0 0 0 0 0 0 0 0 0 0 0 0 0 0 0 0 0 0 0 0 0 0 0 0 0 0 0 0 0 0 0 0 0 0 0 0 0 0 0 "/>
</feComponentTransfer>
<feComposite operator="in" in2="shape" in="coloredNoise1" result="noise1Clipped" />
<feFlood flood-color="#D9D9D9" result="color1Flood" />
<feComposite operator="in" in2="noise1Clipped" in="color1Flood" result="color1" />
<feMerge result="effect1_noise_6_332">
<feMergeNode in="shape" />
<feMergeNode in="color1" />
</feMerge>
</filter>
</defs>
</svg>
