<svg width="28" height="28" viewBox="0 0 28 28" fill="none" xmlns="http://www.w3.org/2000/svg">
<g clip-path="url(#clip0_15_346)">
<path fill-rule="evenodd" clip-rule="evenodd" d="M14.1134 4.86002L14 4.89736L13.888 4.86136C13.414 4.70588 12.9084 4.6726 12.4182 4.76461C11.9279 4.85662 11.4688 5.07094 11.0834 5.3877C10.698 5.70445 10.3989 6.11338 10.2137 6.57658C10.0285 7.03977 9.96325 7.54223 10.024 8.03736L10.176 9.28402C10.2918 10.2167 10.7443 11.0748 11.4486 11.6971C12.1528 12.3194 13.0602 12.6628 14 12.6628C14.9398 12.6628 15.8472 12.3194 16.5514 11.6971C17.2557 11.0748 17.7083 10.2167 17.824 9.28402L17.9774 8.03736C18.0376 7.5423 17.9721 7.04003 17.7868 6.57702C17.6015 6.11402 17.3024 5.70523 16.9172 5.38847C16.532 5.07172 16.0731 4.85724 15.583 4.76487C15.0929 4.6725 14.5874 4.70523 14.1134 4.86002ZM12.7667 6.06002C13.004 6.02936 13.2454 6.05336 13.4734 6.12669L14 6.30002L14.528 6.12669C14.7888 6.04105 15.0671 6.02269 15.3369 6.07332C15.6067 6.12395 15.8593 6.24193 16.0713 6.41631C16.2833 6.59068 16.4479 6.8158 16.5496 7.07076C16.6514 7.32572 16.687 7.60225 16.6534 7.87469L16.5 9.12136C16.4229 9.72996 16.1264 10.2895 15.6661 10.6951C15.2059 11.1007 14.6135 11.3245 14 11.3245C13.3866 11.3245 12.7942 11.1007 12.3339 10.6951C11.8736 10.2895 11.5772 9.72996 11.5 9.12136L11.3467 7.87469C11.3202 7.66214 11.336 7.44646 11.3931 7.24002C11.4502 7.03358 11.5475 6.84046 11.6795 6.67173C11.8114 6.503 11.9754 6.36198 12.1619 6.25678C12.3485 6.15158 12.554 6.08559 12.7667 6.06002Z" fill="#9F0001" stroke="#9F0001"/>
<path fill-rule="evenodd" clip-rule="evenodd" d="M16.4933 11.3333H11.2053C10.503 11.3337 9.81323 11.5191 9.2053 11.8706C7.07907 13.0991 5.50574 14.4809 4.4853 16.016C4.15863 16.5093 3.82663 16.96 3.51596 17.38C2.16263 19.2133 1.2253 20.4826 2.89063 22.32C4.9373 24.58 9.27463 26 13.5306 26C17.7866 26 22.028 25.1626 24.78 22.32C26.8173 20.216 25.9706 19.2773 24.6533 17.8173C24.1906 17.3053 23.6706 16.7293 23.1973 16.016C22.1377 14.4222 20.5573 13.0329 18.456 11.848C17.8568 11.5106 17.1809 11.3333 16.4933 11.3333ZM9.87196 13.024C10.2773 12.7899 10.7372 12.6667 11.2053 12.6666H16.4933C16.9516 12.667 17.4021 12.7855 17.8013 13.0106C19.7293 14.096 21.152 15.3466 22.0866 16.7533C22.308 17.0866 22.548 17.4093 22.8133 17.7346C22.844 17.772 22.9546 17.8986 23.1066 18.0706C23.5613 18.5906 24.388 19.5346 24.532 19.768C24.7906 20.1893 24.732 20.4533 23.8213 21.3933C21.64 23.648 18.1466 24.6666 13.5306 24.6666C9.53596 24.6666 5.60263 23.3266 3.87863 21.4253C3.37196 20.8653 3.27196 20.5373 3.36663 20.168C3.4413 19.8746 3.6413 19.5013 4.02396 18.952C4.07196 18.8813 4.23063 18.664 4.42796 18.3946C4.76796 17.928 5.22263 17.304 5.41463 17.0213L5.5973 16.7546C6.4933 15.404 7.91196 14.1573 9.87196 13.024Z" fill="#9F0001" stroke="#9F0001"/>
<path d="M9.3814 2.24802C9.34669 2.16638 9.32862 2.07864 9.32826 1.98992C9.32789 1.90121 9.34523 1.81331 9.37927 1.73139C9.4133 1.64946 9.46335 1.57516 9.52647 1.51282C9.58959 1.45048 9.66452 1.40137 9.74686 1.36836C9.82921 1.33535 9.91731 1.31911 10.006 1.32059C10.0947 1.32206 10.1822 1.34123 10.2634 1.37696C10.3446 1.41269 10.4179 1.46427 10.4789 1.52867C10.5399 1.59308 10.5874 1.66901 10.6187 1.75202L11.9521 5.08536C12.0136 5.24856 12.0087 5.42937 11.9385 5.58901C11.8682 5.74865 11.7382 5.8744 11.5763 5.9393C11.4144 6.00419 11.2335 6.00306 11.0725 5.93615C10.9114 5.86923 10.783 5.74186 10.7147 5.58136L9.3814 2.24802ZM17.3814 1.75202C17.4127 1.66901 17.4602 1.59308 17.5213 1.52867C17.5823 1.46427 17.6555 1.41269 17.7367 1.37696C17.8179 1.34123 17.9054 1.32206 17.9941 1.32059C18.0828 1.31911 18.1709 1.33535 18.2533 1.36836C18.3356 1.40137 18.4106 1.45048 18.4737 1.51282C18.5368 1.57516 18.5868 1.64946 18.6209 1.73139C18.6549 1.81331 18.6723 1.90121 18.6719 1.98992C18.6715 2.07864 18.6535 2.16638 18.6187 2.24802L17.2854 5.58136C17.2541 5.66437 17.2066 5.7403 17.1456 5.80471C17.0845 5.86911 17.0113 5.92069 16.9301 5.95642C16.8489 5.99215 16.7614 6.01132 16.6727 6.01279C16.584 6.01427 16.4959 5.99803 16.4135 5.96502C16.3312 5.93201 16.2563 5.8829 16.1931 5.82056C16.13 5.75822 16.08 5.68392 16.0459 5.60199C16.0119 5.52007 15.9946 5.43217 15.9949 5.34346C15.9953 5.25475 16.0134 5.167 16.0481 5.08536L17.3814 1.75202ZM13.3334 16C13.3334 15.8232 13.4036 15.6536 13.5287 15.5286C13.6537 15.4036 13.8233 15.3334 14.0001 15.3334C14.1769 15.3334 14.3465 15.4036 14.4715 15.5286C14.5965 15.6536 14.6667 15.8232 14.6667 16V21.3334C14.6667 21.5102 14.5965 21.6797 14.4715 21.8048C14.3465 21.9298 14.1769 22 14.0001 22C13.8233 22 13.6537 21.9298 13.5287 21.8048C13.4036 21.6797 13.3334 21.5102 13.3334 21.3334V16ZM10.1121 15.6307C10.1593 15.555 10.2212 15.4896 10.2942 15.4383C10.3672 15.387 10.4497 15.3509 10.5369 15.3321C10.6241 15.3133 10.7142 15.3121 10.8018 15.3288C10.8894 15.3454 10.9728 15.3794 11.0471 15.4288C11.1213 15.4783 11.1849 15.5421 11.234 15.6166C11.2831 15.691 11.3168 15.7745 11.3331 15.8622C11.3493 15.9499 11.3478 16.04 11.3286 16.1271C11.3095 16.2142 11.273 16.2966 11.2214 16.3694L8.55474 20.3694C8.45443 20.5108 8.30294 20.6076 8.13241 20.6393C7.96189 20.6709 7.78577 20.6348 7.64142 20.5387C7.49706 20.4425 7.39585 20.294 7.35925 20.1244C7.32266 19.9549 7.35356 19.7778 7.44541 19.6307L10.1121 15.6307ZM17.8881 15.6307C17.8408 15.555 17.7789 15.4896 17.7059 15.4383C17.633 15.387 17.5504 15.3509 17.4632 15.3321C17.3761 15.3133 17.286 15.3121 17.1984 15.3288C17.1107 15.3454 17.0273 15.3794 16.9531 15.4288C16.8788 15.4783 16.8153 15.5421 16.7661 15.6166C16.717 15.691 16.6833 15.7745 16.6671 15.8622C16.6508 15.9499 16.6523 16.04 16.6715 16.1271C16.6907 16.2142 16.7271 16.2966 16.7787 16.3694L19.4454 20.3694C19.5457 20.5108 19.6972 20.6076 19.8677 20.6393C20.0382 20.6709 20.2144 20.6348 20.3587 20.5387C20.5031 20.4425 20.6043 20.294 20.6409 20.1244C20.6775 19.9549 20.6466 19.7778 20.5547 19.6307L17.8881 15.6307Z" fill="#9F0001" stroke="#9F0001"/>
</g>
<defs>
<clipPath id="clip0_15_346">
<rect width="26.6667" height="26.6667" fill="white" transform="translate(0.666626 0.666687)"/>
</clipPath>
</defs>
</svg>
