<svg width="45" height="780" viewBox="0 0 45 780" fill="none" xmlns="http://www.w3.org/2000/svg">
<path d="M45 840H31C33.8 840 35.2 840 36.2695 839.455C37.2103 838.976 37.9757 838.21 38.4551 837.27C38.9999 836.2 39 834.8 39 832V823C39 820.2 38.9999 818.8 38.4551 817.73C37.9757 816.79 37.2103 816.024 36.2695 815.545C35.2 815 33.8 815 31 815H14C11.2 815 9.79998 815 8.73047 815.545C7.78966 816.024 7.02429 816.79 6.54492 817.73C6.00013 818.8 6 820.2 6 823V832C6 834.8 6.00013 836.2 6.54492 837.27C7.02429 838.21 7.78966 838.976 8.73047 839.455C9.79998 840 11.2 840 14 840H0V0H45V840ZM14 780C11.2 780 9.79998 780 8.73047 780.545C7.78966 781.024 7.02429 781.79 6.54492 782.73C6.00013 783.8 6 785.2 6 788V797C6 799.8 6.00013 801.2 6.54492 802.27C7.02429 803.21 7.78966 803.976 8.73047 804.455C9.79998 805 11.2 805 14 805H31C33.8 805 35.2 805 36.2695 804.455C37.2103 803.976 37.9757 803.21 38.4551 802.27C38.9999 801.2 39 799.8 39 797V788C39 785.2 38.9999 783.8 38.4551 782.73C37.9757 781.79 37.2103 781.024 36.2695 780.545C35.2 780 33.8 780 31 780H14ZM14 745C11.2 745 9.79998 745 8.73047 745.545C7.78966 746.024 7.02429 746.79 6.54492 747.73C6.00013 748.8 6 750.2 6 753V762C6 764.8 6.00013 766.2 6.54492 767.27C7.02429 768.21 7.78966 768.976 8.73047 769.455C9.79998 770 11.2 770 14 770H31C33.8 770 35.2 770 36.2695 769.455C37.2103 768.976 37.9757 768.21 38.4551 767.27C38.9999 766.2 39 764.8 39 762V753C39 750.2 38.9999 748.8 38.4551 747.73C37.9757 746.79 37.2103 746.024 36.2695 745.545C35.2 745 33.8 745 31 745H14ZM14 710C11.2 710 9.79998 710 8.73047 710.545C7.78966 711.024 7.02429 711.79 6.54492 712.73C6.00013 713.8 6 715.2 6 718V727C6 729.8 6.00013 731.2 6.54492 732.27C7.02429 733.21 7.78966 733.976 8.73047 734.455C9.79998 735 11.2 735 14 735H31C33.8 735 35.2 735 36.2695 734.455C37.2103 733.976 37.9757 733.21 38.4551 732.27C38.9999 731.2 39 729.8 39 727V718C39 715.2 38.9999 713.8 38.4551 712.73C37.9757 711.79 37.2103 711.024 36.2695 710.545C35.2 710 33.8 710 31 710H14ZM14 675C11.2 675 9.79998 675 8.73047 675.545C7.78966 676.024 7.02429 676.79 6.54492 677.73C6.00013 678.8 6 680.2 6 683V692C6 694.8 6.00013 696.2 6.54492 697.27C7.02429 698.21 7.78966 698.976 8.73047 699.455C9.79998 700 11.2 700 14 700H31C33.8 700 35.2 700 36.2695 699.455C37.2103 698.976 37.9757 698.21 38.4551 697.27C38.9999 696.2 39 694.8 39 692V683C39 680.2 38.9999 678.8 38.4551 677.73C37.9757 676.79 37.2103 676.024 36.2695 675.545C35.2 675 33.8 675 31 675H14ZM14 640C11.2 640 9.79998 640 8.73047 640.545C7.78966 641.024 7.02429 641.79 6.54492 642.73C6.00013 643.8 6 645.2 6 648V657C6 659.8 6.00013 661.2 6.54492 662.27C7.02429 663.21 7.78966 663.976 8.73047 664.455C9.79998 665 11.2 665 14 665H31C33.8 665 35.2 665 36.2695 664.455C37.2103 663.976 37.9757 663.21 38.4551 662.27C38.9999 661.2 39 659.8 39 657V648C39 645.2 38.9999 643.8 38.4551 642.73C37.9757 641.79 37.2103 641.024 36.2695 640.545C35.2 640 33.8 640 31 640H14ZM14 605C11.2 605 9.79998 605 8.73047 605.545C7.78966 606.024 7.02429 606.79 6.54492 607.73C6.00013 608.8 6 610.2 6 613V622C6 624.8 6.00013 626.2 6.54492 627.27C7.02429 628.21 7.78966 628.976 8.73047 629.455C9.79998 630 11.2 630 14 630H31C33.8 630 35.2 630 36.2695 629.455C37.2103 628.976 37.9757 628.21 38.4551 627.27C38.9999 626.2 39 624.8 39 622V613C39 610.2 38.9999 608.8 38.4551 607.73C37.9757 606.79 37.2103 606.024 36.2695 605.545C35.2 605 33.8 605 31 605H14ZM14 570C11.2 570 9.79998 570 8.73047 570.545C7.78966 571.024 7.02429 571.79 6.54492 572.73C6.00013 573.8 6 575.2 6 578V587C6 589.8 6.00013 591.2 6.54492 592.27C7.02429 593.21 7.78966 593.976 8.73047 594.455C9.79998 595 11.2 595 14 595H31C33.8 595 35.2 595 36.2695 594.455C37.2103 593.976 37.9757 593.21 38.4551 592.27C38.9999 591.2 39 589.8 39 587V578C39 575.2 38.9999 573.8 38.4551 572.73C37.9757 571.79 37.2103 571.024 36.2695 570.545C35.2 570 33.8 570 31 570H14ZM14 535C11.2 535 9.79998 535 8.73047 535.545C7.78966 536.024 7.02429 536.79 6.54492 537.73C6.00013 538.8 6 540.2 6 543V552C6 554.8 6.00013 556.2 6.54492 557.27C7.02429 558.21 7.78966 558.976 8.73047 559.455C9.79998 560 11.2 560 14 560H31C33.8 560 35.2 560 36.2695 559.455C37.2103 558.976 37.9757 558.21 38.4551 557.27C38.9999 556.2 39 554.8 39 552V543C39 540.2 38.9999 538.8 38.4551 537.73C37.9757 536.79 37.2103 536.024 36.2695 535.545C35.2 535 33.8 535 31 535H14ZM14 500C11.2 500 9.79998 500 8.73047 500.545C7.78966 501.024 7.02429 501.79 6.54492 502.73C6.00013 503.8 6 505.2 6 508V517C6 519.8 6.00013 521.2 6.54492 522.27C7.02429 523.21 7.78966 523.976 8.73047 524.455C9.79998 525 11.2 525 14 525H31C33.8 525 35.2 525 36.2695 524.455C37.2103 523.976 37.9757 523.21 38.4551 522.27C38.9999 521.2 39 519.8 39 517V508C39 505.2 38.9999 503.8 38.4551 502.73C37.9757 501.79 37.2103 501.024 36.2695 500.545C35.2 500 33.8 500 31 500H14ZM14 465C11.2 465 9.79998 465 8.73047 465.545C7.78966 466.024 7.02429 466.79 6.54492 467.73C6.00013 468.8 6 470.2 6 473V482C6 484.8 6.00013 486.2 6.54492 487.27C7.02429 488.21 7.78966 488.976 8.73047 489.455C9.79998 490 11.2 490 14 490H31C33.8 490 35.2 490 36.2695 489.455C37.2103 488.976 37.9757 488.21 38.4551 487.27C38.9999 486.2 39 484.8 39 482V473C39 470.2 38.9999 468.8 38.4551 467.73C37.9757 466.79 37.2103 466.024 36.2695 465.545C35.2 465 33.8 465 31 465H14ZM14 430C11.2 430 9.79998 430 8.73047 430.545C7.78966 431.024 7.02429 431.79 6.54492 432.73C6.00013 433.8 6 435.2 6 438V447C6 449.8 6.00013 451.2 6.54492 452.27C7.02429 453.21 7.78966 453.976 8.73047 454.455C9.79998 455 11.2 455 14 455H31C33.8 455 35.2 455 36.2695 454.455C37.2103 453.976 37.9757 453.21 38.4551 452.27C38.9999 451.2 39 449.8 39 447V438C39 435.2 38.9999 433.8 38.4551 432.73C37.9757 431.79 37.2103 431.024 36.2695 430.545C35.2 430 33.8 430 31 430H14ZM14 395C11.2 395 9.79998 395 8.73047 395.545C7.78966 396.024 7.02429 396.79 6.54492 397.73C6.00013 398.8 6 400.2 6 403V412C6 414.8 6.00013 416.2 6.54492 417.27C7.02429 418.21 7.78966 418.976 8.73047 419.455C9.79998 420 11.2 420 14 420H31C33.8 420 35.2 420 36.2695 419.455C37.2103 418.976 37.9757 418.21 38.4551 417.27C38.9999 416.2 39 414.8 39 412V403C39 400.2 38.9999 398.8 38.4551 397.73C37.9757 396.79 37.2103 396.024 36.2695 395.545C35.2 395 33.8 395 31 395H14ZM14 360C11.2 360 9.79998 360 8.73047 360.545C7.78966 361.024 7.02429 361.79 6.54492 362.73C6.00013 363.8 6 365.2 6 368V377C6 379.8 6.00013 381.2 6.54492 382.27C7.02429 383.21 7.78966 383.976 8.73047 384.455C9.79998 385 11.2 385 14 385H31C33.8 385 35.2 385 36.2695 384.455C37.2103 383.976 37.9757 383.21 38.4551 382.27C38.9999 381.2 39 379.8 39 377V368C39 365.2 38.9999 363.8 38.4551 362.73C37.9757 361.79 37.2103 361.024 36.2695 360.545C35.2 360 33.8 360 31 360H14ZM14 325C11.2 325 9.79998 325 8.73047 325.545C7.78966 326.024 7.02429 326.79 6.54492 327.73C6.00013 328.8 6 330.2 6 333V342C6 344.8 6.00013 346.2 6.54492 347.27C7.02429 348.21 7.78966 348.976 8.73047 349.455C9.79998 350 11.2 350 14 350H31C33.8 350 35.2 350 36.2695 349.455C37.2103 348.976 37.9757 348.21 38.4551 347.27C38.9999 346.2 39 344.8 39 342V333C39 330.2 38.9999 328.8 38.4551 327.73C37.9757 326.79 37.2103 326.024 36.2695 325.545C35.2 325 33.8 325 31 325H14ZM14 290C11.2 290 9.79998 290 8.73047 290.545C7.78966 291.024 7.02429 291.79 6.54492 292.73C6.00013 293.8 6 295.2 6 298V307C6 309.8 6.00013 311.2 6.54492 312.27C7.02429 313.21 7.78966 313.976 8.73047 314.455C9.79998 315 11.2 315 14 315H31C33.8 315 35.2 315 36.2695 314.455C37.2103 313.976 37.9757 313.21 38.4551 312.27C38.9999 311.2 39 309.8 39 307V298C39 295.2 38.9999 293.8 38.4551 292.73C37.9757 291.79 37.2103 291.024 36.2695 290.545C35.2 290 33.8 290 31 290H14ZM14 255C11.2 255 9.79998 255 8.73047 255.545C7.78966 256.024 7.02429 256.79 6.54492 257.73C6.00013 258.8 6 260.2 6 263V272C6 274.8 6.00013 276.2 6.54492 277.27C7.02429 278.21 7.78966 278.976 8.73047 279.455C9.79998 280 11.2 280 14 280H31C33.8 280 35.2 280 36.2695 279.455C37.2103 278.976 37.9757 278.21 38.4551 277.27C38.9999 276.2 39 274.8 39 272V263C39 260.2 38.9999 258.8 38.4551 257.73C37.9757 256.79 37.2103 256.024 36.2695 255.545C35.2 255 33.8 255 31 255H14ZM14 220C11.2 220 9.79998 220 8.73047 220.545C7.78966 221.024 7.02429 221.79 6.54492 222.73C6.00013 223.8 6 225.2 6 228V237C6 239.8 6.00013 241.2 6.54492 242.27C7.02429 243.21 7.78966 243.976 8.73047 244.455C9.79998 245 11.2 245 14 245H31C33.8 245 35.2 245 36.2695 244.455C37.2103 243.976 37.9757 243.21 38.4551 242.27C38.9999 241.2 39 239.8 39 237V228C39 225.2 38.9999 223.8 38.4551 222.73C37.9757 221.79 37.2103 221.024 36.2695 220.545C35.2 220 33.8 220 31 220H14ZM14 185C11.2 185 9.79998 185 8.73047 185.545C7.78966 186.024 7.02429 186.79 6.54492 187.73C6.00013 188.8 6 190.2 6 193V202C6 204.8 6.00013 206.2 6.54492 207.27C7.02429 208.21 7.78966 208.976 8.73047 209.455C9.79998 210 11.2 210 14 210H31C33.8 210 35.2 210 36.2695 209.455C37.2103 208.976 37.9757 208.21 38.4551 207.27C38.9999 206.2 39 204.8 39 202V193C39 190.2 38.9999 188.8 38.4551 187.73C37.9757 186.79 37.2103 186.024 36.2695 185.545C35.2 185 33.8 185 31 185H14ZM14 150C11.2 150 9.79998 150 8.73047 150.545C7.78966 151.024 7.02429 151.79 6.54492 152.73C6.00013 153.8 6 155.2 6 158V167C6 169.8 6.00013 171.2 6.54492 172.27C7.02429 173.21 7.78966 173.976 8.73047 174.455C9.79998 175 11.2 175 14 175H31C33.8 175 35.2 175 36.2695 174.455C37.2103 173.976 37.9757 173.21 38.4551 172.27C38.9999 171.2 39 169.8 39 167V158C39 155.2 38.9999 153.8 38.4551 152.73C37.9757 151.79 37.2103 151.024 36.2695 150.545C35.2 150 33.8 150 31 150H14ZM14 115C11.2 115 9.79998 115 8.73047 115.545C7.78966 116.024 7.02429 116.79 6.54492 117.73C6.00013 118.8 6 120.2 6 123V132C6 134.8 6.00013 136.2 6.54492 137.27C7.02429 138.21 7.78966 138.976 8.73047 139.455C9.79998 140 11.2 140 14 140H31C33.8 140 35.2 140 36.2695 139.455C37.2103 138.976 37.9757 138.21 38.4551 137.27C38.9999 136.2 39 134.8 39 132V123C39 120.2 38.9999 118.8 38.4551 117.73C37.9757 116.79 37.2103 116.024 36.2695 115.545C35.2 115 33.8 115 31 115H14ZM14 80C11.2 80 9.79998 80.0001 8.73047 80.5449C7.78966 81.0243 7.02429 81.7897 6.54492 82.7305C6.00013 83.8 6 85.2 6 88V97C6 99.8 6.00013 101.2 6.54492 102.27C7.02429 103.21 7.78966 103.976 8.73047 104.455C9.79998 105 11.2 105 14 105H31C33.8 105 35.2 105 36.2695 104.455C37.2103 103.976 37.9757 103.21 38.4551 102.27C38.9999 101.2 39 99.8 39 97V88C39 85.2 38.9999 83.8 38.4551 82.7305C37.9757 81.7897 37.2103 81.0243 36.2695 80.5449C35.2 80.0001 33.8 80 31 80H14ZM14 45C11.2 45 9.79998 45.0001 8.73047 45.5449C7.78966 46.0243 7.02429 46.7897 6.54492 47.7305C6.00013 48.8 6 50.2 6 53V62C6 64.8 6.00013 66.2 6.54492 67.2695C7.02429 68.2103 7.78966 68.9757 8.73047 69.4551C9.79998 69.9999 11.2 70 14 70H31C33.8 70 35.2 69.9999 36.2695 69.4551C37.2103 68.9757 37.9757 68.2103 38.4551 67.2695C38.9999 66.2 39 64.8 39 62V53C39 50.2 38.9999 48.8 38.4551 47.7305C37.9757 46.7897 37.2103 46.0243 36.2695 45.5449C35.2 45.0001 33.8 45 31 45H14ZM14 10C11.2 10 9.79998 10.0001 8.73047 10.5449C7.78966 11.0243 7.02429 11.7897 6.54492 12.7305C6.00013 13.8 6 15.2 6 18V27C6 29.8 6.00013 31.2 6.54492 32.2695C7.02429 33.2103 7.78966 33.9757 8.73047 34.4551C9.79998 34.9999 11.2 35 14 35H31C33.8 35 35.2 34.9999 36.2695 34.4551C37.2103 33.9757 37.9757 33.2103 38.4551 32.2695C38.9999 31.2 39 29.8 39 27V18C39 15.2 38.9999 13.8 38.4551 12.7305C37.9757 11.7897 37.2103 11.0243 36.2695 10.5449C35.2 10.0001 33.8 10 31 10H14Z" fill="#2C2C2C"/>
</svg>
