<svg width="21" height="20" viewBox="0 0 21 20" fill="none" xmlns="http://www.w3.org/2000/svg">
<g filter="url(#filter0_n_6_287)">
<path d="M5.6875 13.3658C6.45167 13.3658 7.19454 13.4492 7.91612 13.6158C8.63771 13.7825 9.35317 14.0547 10.0625 14.4325V6.25668C9.43075 5.82723 8.73483 5.50501 7.97475 5.29001C7.2135 5.07557 6.45108 4.96834 5.6875 4.96834C5.1625 4.96834 4.70283 4.99807 4.3085 5.05751C3.91417 5.11695 3.47638 5.22807 2.99513 5.39084C2.86096 5.43362 2.76558 5.49529 2.709 5.57584C2.653 5.65584 2.625 5.7439 2.625 5.84001V13.3525C2.625 13.5025 2.681 13.612 2.793 13.6808C2.905 13.7497 3.02838 13.7581 3.16313 13.7058C3.48279 13.6031 3.85233 13.5206 4.27175 13.4583C4.69117 13.3961 5.16308 13.3653 5.6875 13.3658ZM10.9375 14.4325C11.6468 14.0558 12.3623 13.7836 13.0839 13.6158C13.8055 13.4481 14.5483 13.3647 15.3125 13.3658C15.8375 13.3658 16.3094 13.3967 16.7283 13.4583C17.1471 13.52 17.5166 13.6022 17.8369 13.705C17.971 13.7583 18.0944 13.7503 18.207 13.6808C18.3196 13.6114 18.3756 13.502 18.375 13.3525V5.84001C18.375 5.7439 18.347 5.65834 18.291 5.58334C18.235 5.5089 18.1396 5.44501 18.0049 5.39168C17.5236 5.2289 17.0858 5.11779 16.6915 5.05834C16.2972 4.9989 15.8375 4.96862 15.3125 4.96751C14.5483 4.96751 13.7862 5.07473 13.0261 5.28918C12.2655 5.50418 11.5693 5.8264 10.9375 6.25584V14.4325ZM10.5 15.38C10.3629 15.38 10.2369 15.3636 10.122 15.3308C10.0071 15.2981 9.89742 15.2564 9.793 15.2058C9.15717 14.8753 8.49508 14.6247 7.80675 14.4542C7.11842 14.2836 6.412 14.1989 5.6875 14.2C5.2325 14.2 4.78508 14.2361 4.34525 14.3083C3.906 14.3811 3.47842 14.4978 3.0625 14.6583C2.74517 14.7789 2.44708 14.7425 2.16825 14.5492C1.88942 14.3558 1.75 14.0883 1.75 13.7467V5.69251C1.75 5.4864 1.80687 5.29501 1.92062 5.11834C2.03437 4.94168 2.19392 4.8189 2.39925 4.75001C2.91317 4.53445 3.44779 4.37807 4.00312 4.28084C4.55846 4.18362 5.11992 4.13501 5.6875 4.13501C6.545 4.13501 7.38092 4.25251 8.19525 4.48751C9.01075 4.72251 9.779 5.06418 10.5 5.51251C11.2216 5.06418 11.9898 4.72251 12.8047 4.48751C13.6197 4.25251 14.4556 4.13501 15.3125 4.13501C15.8801 4.13501 16.4415 4.18362 16.9969 4.28084C17.5522 4.37807 18.0868 4.53445 18.6007 4.75001C18.8061 4.81945 18.9656 4.94223 19.0794 5.11834C19.1931 5.29445 19.25 5.48584 19.25 5.69251V13.7467C19.25 14.0878 19.0995 14.3497 18.7985 14.5325C18.4969 14.7147 18.1761 14.7456 17.836 14.625C17.4318 14.475 17.0182 14.3667 16.5952 14.3C16.1729 14.2328 15.7453 14.1992 15.3125 14.1992C14.5892 14.1992 13.883 14.2842 13.1941 14.4542C12.5052 14.6242 11.8428 14.8745 11.207 15.205C11.102 15.2567 10.9923 15.2986 10.878 15.3308C10.7631 15.3636 10.6371 15.38 10.5 15.38ZM12.1494 7.45668C12.1494 7.39557 12.1715 7.3339 12.2159 7.27168C12.2602 7.20945 12.3127 7.16279 12.3734 7.13168C12.8185 6.93945 13.2889 6.79223 13.7847 6.69001C14.2806 6.5889 14.7898 6.53834 15.3125 6.53834C15.5925 6.53834 15.8579 6.55307 16.1087 6.58251C16.3596 6.61195 16.618 6.65445 16.884 6.71001C16.9592 6.72668 17.0246 6.76418 17.08 6.82251C17.136 6.88029 17.164 6.95168 17.164 7.03668C17.164 7.17668 17.1202 7.27834 17.0327 7.34168C16.9452 7.40501 16.828 7.41945 16.681 7.38501C16.4652 7.34334 16.2444 7.31473 16.0186 7.29918C15.7923 7.28362 15.5569 7.27584 15.3125 7.27584C14.8435 7.27584 14.3847 7.31862 13.9361 7.40418C13.487 7.48973 13.0611 7.60918 12.6586 7.76251C12.5087 7.81751 12.3862 7.81612 12.2911 7.75834C12.196 7.70057 12.1488 7.60001 12.1494 7.45668ZM12.1494 11.9758C12.1494 11.9147 12.1715 11.8506 12.2159 11.7833C12.2602 11.715 12.3127 11.6656 12.3734 11.635C12.7963 11.4428 13.2667 11.2983 13.7847 11.2017C14.3027 11.1056 14.812 11.0575 15.3125 11.0575C15.5925 11.0575 15.8579 11.0722 16.1087 11.1017C16.3596 11.1311 16.618 11.1736 16.884 11.2292C16.9592 11.2458 17.0246 11.2833 17.08 11.3417C17.136 11.3995 17.164 11.4708 17.164 11.5558C17.164 11.6958 17.1202 11.7975 17.0327 11.8608C16.9452 11.9242 16.828 11.9386 16.681 11.9042C16.4652 11.8625 16.2444 11.8339 16.0186 11.8183C15.7923 11.8028 15.5569 11.795 15.3125 11.795C14.8552 11.795 14.4048 11.8395 13.9615 11.9283C13.5182 12.0178 13.0952 12.1447 12.6927 12.3092C12.5422 12.3747 12.4139 12.3739 12.3077 12.3067C12.2016 12.2395 12.1488 12.1292 12.1494 11.9758ZM12.1494 9.73251C12.1494 9.6714 12.1715 9.60973 12.2159 9.54751C12.2602 9.48529 12.3127 9.43862 12.3734 9.40751C12.8185 9.21473 13.2889 9.06751 13.7847 8.96584C14.2806 8.86473 14.7898 8.81418 15.3125 8.81418C15.5925 8.81418 15.8579 8.8289 16.1087 8.85834C16.3596 8.88779 16.618 8.93029 16.884 8.98584C16.9592 9.00251 17.0246 9.03973 17.08 9.09751C17.136 9.15529 17.164 9.22695 17.164 9.31251C17.164 9.45251 17.1202 9.55418 17.0327 9.61751C16.9452 9.68084 16.828 9.69501 16.681 9.66001C16.4652 9.61834 16.2444 9.59001 16.0186 9.57501C15.7923 9.55945 15.5569 9.55168 15.3125 9.55168C14.8435 9.55168 14.3847 9.59445 13.9361 9.68001C13.487 9.76501 13.0611 9.88445 12.6586 10.0383C12.5087 10.0928 12.3862 10.0914 12.2911 10.0342C12.1966 9.97584 12.1494 9.87529 12.1494 9.73251Z" fill="#2C2C2C"/>
</g>
<defs>
<filter id="filter0_n_6_287" x="1.75" y="4.13501" width="17.5" height="11.245" filterUnits="userSpaceOnUse" color-interpolation-filters="sRGB">
<feFlood flood-opacity="0" result="BackgroundImageFix"/>
<feBlend mode="normal" in="SourceGraphic" in2="BackgroundImageFix" result="shape"/>
<feTurbulence type="fractalNoise" baseFrequency="1.4285714626312256 1.4285714626312256" stitchTiles="stitch" numOctaves="3" result="noise" seed="8143" />
<feColorMatrix in="noise" type="luminanceToAlpha" result="alphaNoise" />
<feComponentTransfer in="alphaNoise" result="coloredNoise1">
<feFuncA type="discrete" tableValues="0 0 0 0 0 0 0 0 0 0 0 0 1 1 1 1 1 1 1 1 1 1 1 1 1 1 1 1 1 1 1 1 1 1 1 1 1 1 0 0 0 0 0 0 0 0 0 0 0 0 0 0 0 0 0 0 0 0 0 0 0 0 0 0 0 0 0 0 0 0 0 0 0 0 0 0 0 0 0 0 0 0 0 0 0 0 0 0 0 0 0 0 0 0 0 0 0 0 0 0 "/>
</feComponentTransfer>
<feComposite operator="in" in2="shape" in="coloredNoise1" result="noise1Clipped" />
<feFlood flood-color="#D9D9D9" result="color1Flood" />
<feComposite operator="in" in2="noise1Clipped" in="color1Flood" result="color1" />
<feMerge result="effect1_noise_6_287">
<feMergeNode in="shape" />
<feMergeNode in="color1" />
</feMerge>
</filter>
</defs>
</svg>
