<svg width="24" height="24" viewBox="0 0 24 24" fill="none" xmlns="http://www.w3.org/2000/svg">
<path d="M10 3V5L14 3V5L10 3Z" stroke="#9F0001" stroke-width="2" stroke-linecap="round" stroke-linejoin="round"/>
<path d="M18 3H19C19.3483 3.00556 19.6892 3.10202 19.9888 3.27982C20.2884 3.45763 20.5363 3.71061 20.7081 4.01372C20.8799 4.31683 20.9695 4.65955 20.968 5.00794C20.9666 5.35633 20.8742 5.69831 20.7 6C17.7917 10.9952 14.8917 15.9952 12 21C12 21 6.79996 12 3.29996 6C3.12572 5.69831 3.0333 5.35633 3.03188 5.00794C3.03045 4.65955 3.12005 4.31683 3.29182 4.01372C3.46358 3.71061 3.71154 3.45763 4.01115 3.27982C4.31075 3.10202 4.65161 3.00556 4.99996 3H5.99996M12 9H12.01M12 13H12.01" stroke="#9F0001" stroke-width="2" stroke-linecap="round" stroke-linejoin="round"/>
<path d="M21 5V19C21 19.5304 20.7893 20.0391 20.4142 20.4142C20.0391 20.7893 19.5304 21 19 21H5C4.46957 21 3.96086 20.7893 3.58579 20.4142C3.21071 20.0391 3 19.5304 3 19V5" stroke="#9F0001" stroke-width="2" stroke-linecap="round" stroke-linejoin="round"/>
</svg>
